# xmcd
#
# Track frame offsets:
#   150
#   13334
#   29690
#   44513
#   59277
#   76645
#   87461
#   103602
#   118891
#   136462
#   148148
#   164620
#   182557
#   196037
#   209798
#   225744
#   239212
#   254563
#   268585
#   281811
#
# Disc length: 3966 seconds
#
# Revision: 0
# Processed by: cddbd v1.5.1PL0 Copyright (c) Steve Scherf et al.
# Submitted via: Media_Universe 3.0
#
DISCID=3c0f7c14
DTITLE=Tracy Lawrence - Sticks And Stones and Coast Is Clear
DYEAR=1900
DGENRE=Country
TTITLE0=Runnin Behind
TTITLE1=Sticks And Stones
TTITLE2=Somebody Paints The Wall
TTITLE3=Dancin To Sweet 17
TTITLE4=Todays Lonely Fool
TTITLE5=Paris. Tennessee
TTITLE6=Froze Over
TTITLE7=Between Us
TTITLE8=April's Fool
TTITLE9=I Hope Heaven Has A Honky Tonk
TTITLE10=Better Man Better Off
TTITLE11=The Coast Is Clear
TTITLE12=Any Minute Now
TTITLE13=While You Sleep
TTITLE14=How A Cowgirl SaysGoodbye
TTITLE15=One Step Ahead Of The Storm
TTITLE16=In A Moment Of Weakness
TTITLE17=Livin In Black And White
TTITLE18=I Hit The Ground Crawlin
TTITLE19=As Lonesome As It Gets
EXTD=
EXTT0=
EXTT1=
EXTT2=
EXTT3=
EXTT4=
EXTT5=
EXTT6=
EXTT7=
EXTT8=
EXTT9=
EXTT10=
EXTT11=
EXTT12=
EXTT13=
EXTT14=
EXTT15=
EXTT16=
EXTT17=
EXTT18=
EXTT19=
PLAYORDER=
